<svg width="800" height="500" viewBox="0 0 800 500" xmlns="http://www.w3.org/2000/svg">
  <defs>
    <linearGradient id="hill" x1="0" y1="0" x2="0" y2="1">
      <stop offset="0%" stop-color="#c7f0d5" />
      <stop offset="100%" stop-color="#76c28a" />
    </linearGradient>
    <linearGradient id="barn" x1="0" y1="0" x2="1" y2="1">
      <stop offset="0%" stop-color="#f97316" />
      <stop offset="100%" stop-color="#ef4444" />
    </linearGradient>
  </defs>
  <rect width="800" height="500" rx="32" fill="#fff" />
  <path d="M0 360 Q200 280 400 340 T800 360 L800 500 L0 500 Z" fill="url(#hill)" />
  <path d="M420 230 L540 230 L540 360 L420 360 Z" fill="url(#barn)" />
  <path d="M420 230 L380 280 L420 330" stroke="#b91c1c" stroke-width="12" fill="none" />
  <path d="M540 230 L580 280 L540 330" stroke="#b91c1c" stroke-width="12" fill="none" />
  <path d="M430 330 L530 330" stroke="#ffffff" stroke-width="10" />
  <path d="M450 310 L450 360" stroke="#ffffff" stroke-width="10" />
  <circle cx="580" cy="160" r="40" fill="#fbbf24" opacity="0.9" />
  <circle cx="650" cy="120" r="16" fill="#ffffff" opacity="0.8" />
  <circle cx="110" cy="120" r="20" fill="#ffffff" opacity="0.6" />
  <rect x="200" y="285" width="180" height="90" rx="20" fill="#1f2937" opacity="0.12" />
  <rect x="240" y="310" width="96" height="30" rx="12" fill="#ffffff" />
  <rect x="270" y="240" width="70" height="60" rx="16" fill="#e0f2fe" />
  <path d="M240 250 Q260 220 310 250 Q360 280 390 245" fill="none" stroke="#047857" stroke-width="10" />
</svg>
