<svg width="1920" height="1080" viewBox="0 0 1920 1080" xmlns="http://www.w3.org/2000/svg">
  <defs>
    <linearGradient id="sky" x1="0" y1="0" x2="0" y2="1">
      <stop offset="0%" stop-color="#82d3c8" />
      <stop offset="100%" stop-color="#faf6ea" />
    </linearGradient>
    <linearGradient id="field" x1="0" y1="0" x2="1" y2="1">
      <stop offset="0%" stop-color="#6abf8b" />
      <stop offset="100%" stop-color="#2e8a4d" />
    </linearGradient>
    <radialGradient id="sun" cx="50%" cy="25%" r="30%">
      <stop offset="0%" stop-color="#fff3b8" />
      <stop offset="100%" stop-color="#f9c74f" />
    </radialGradient>
  </defs>
  <rect width="1920" height="1080" fill="url(#sky)" />
  <circle cx="1460" cy="220" r="130" fill="url(#sun)" opacity="0.95" />
  <path d="M0 520 Q480 420 960 520 T1920 520 L1920 1080 L0 1080 Z" fill="#8ED081" />
  <path d="M0 620 Q480 520 960 620 T1920 620 L1920 1080 L0 1080 Z" fill="url(#field)" opacity="0.92" />
  <path d="M0 700 Q480 600 960 700 T1920 700 L1920 1080 L0 1080 Z" fill="#3b7b56" />
  <g fill="#fff" opacity="0.8">
    <circle cx="280" cy="190" r="18" />
    <circle cx="340" cy="160" r="12" />
    <circle cx="400" cy="220" r="15" />
    <circle cx="1560" cy="180" r="14" />
    <circle cx="1620" cy="140" r="10" />
  </g>
  <circle cx="290" cy="760" r="20" fill="#f0f2f1" opacity="0.9" />
  <circle cx="350" cy="740" r="16" fill="#f0f2f1" opacity="0.75" />
  <circle cx="410" cy="760" r="22" fill="#f0f2f1" opacity="0.95" />
  <g fill="#ffffff" opacity="0.3">
    <ellipse cx="1180" cy="700" rx="230" ry="110" />
    <ellipse cx="1520" cy="640" rx="275" ry="120" />
  </g>
  <path d="M550 620 Q660 520 780 620 T1000 620" fill="none" stroke="#ecf9f1" stroke-width="14" stroke-linecap="round" />
</svg>
